{"asset":{"version":"2.0","generator":"THREE.GLTFExporter"},"scenes":[{"nodes":[0],"name":"AuxScene"}],"scene":0,"nodes":[{"mesh":0}],"bufferViews":[{"buffer":0,"byteOffset":0,"byteLength":648,"target":34962,"byteStride":12},{"buffer":0,"byteOffset":648,"byteLength":648,"target":34962,"byteStride":12}],"buffers":[{"byteLength":1296,"uri":"data:application/octet-stream;base64,"}],"accessors":[{"bufferView":0,"componentType":5126,"count":54,"max":[2.700000047683716,1,-0.30000001192092896],"min":[-2.700000047683716,1,-5.699999809265137],"type":"VEC3"},{"bufferView":1,"componentType":5126,"count":54,"max":[0,1,0],"min":[0,1,0],"type":"VEC3"}],"materials":[{"pbrMetallicRoughness":{"baseColorFactor":[0.5019607843137255,0.5019607843137255,0.5019607843137255,1],"metallicFactor":0,"roughnessFactor":1}}],"meshes":[{"primitives":[{"mode":4,"attributes":{"POSITION":0,"NORMAL":1},"material":0}]}]}